<?xml version="1.0" encoding="UTF-8"?>
<!DOCTYPE svg PUBLIC "-//W3C//DTD SVG 1.1//EN" "http://www.w3.org/Graphics/SVG/1.1/DTD/svg11.dtd">
<svg xmlns="http://www.w3.org/2000/svg" version="1.1" width="124px" height="168px" style="shape-rendering:geometricPrecision; text-rendering:geometricPrecision; image-rendering:optimizeQuality; fill-rule:evenodd; clip-rule:evenodd" xmlns:xlink="http://www.w3.org/1999/xlink">
<g><path style="opacity:0.974" fill="#febe00" d="M 50.5,-0.5 C 62.8333,-0.5 75.1667,-0.5 87.5,-0.5C 97.7997,0.714248 108.133,2.54758 118.5,5C 120.687,6.02496 122.354,7.52496 123.5,9.5C 123.5,12.1667 123.5,14.8333 123.5,17.5C 122.233,24.6763 121.066,32.0096 120,39.5C 119.167,40.3333 118.333,41.1667 117.5,42C 106.439,41.9919 95.4385,40.9919 84.5,39C 75.8333,38.3333 67.1667,38.3333 58.5,39C 52.7502,39.7911 47.9169,42.2911 44,46.5C 41.8526,51.3271 42.1859,55.9938 45,60.5C 50.453,63.4762 55.953,66.3095 61.5,69C 63.2658,71.096 64.5991,73.4293 65.5,76C 79.5684,76.0522 93.5684,76.7188 107.5,78C 115.857,85.8891 121.191,95.3891 123.5,106.5C 123.5,111.833 123.5,117.167 123.5,122.5C 119.012,144.159 106.012,157.993 84.5,164C 76.4299,165.685 68.4299,166.852 60.5,167.5C 56.1667,167.5 51.8333,167.5 47.5,167.5C 32.7549,166.82 18.0883,164.654 3.5,161C 2.01608,160.338 0.682751,159.504 -0.5,158.5C -0.5,153.833 -0.5,149.167 -0.5,144.5C 0.647103,139.358 1.48044,134.025 2,128.5C 2.57429,126.508 3.74096,125.008 5.5,124C 20.972,125.399 36.472,126.899 52,128.5C 60.3131,128.569 68.1465,126.735 75.5,123C 80.9433,118.175 81.7766,112.675 78,106.5C 73.5278,103.347 68.6944,100.847 63.5,99C 60.0201,96.7025 58.0201,93.5358 57.5,89.5C 43.8293,89.6666 30.1626,89.4999 16.5,89C 7.74862,82.0943 2.08196,73.2609 -0.5,62.5C -0.5,55.5 -0.5,48.5 -0.5,41.5C 3.85,23.3071 14.85,10.8071 32.5,4C 38.5532,2.15331 44.5532,0.653314 50.5,-0.5 Z"/></g>
</svg>
